<svg width="34" height="34" viewBox="0 0 34 34" fill="none" xmlns="http://www.w3.org/2000/svg">
<path d="M10.283 4.68214C10.367 4.68184 10.367 4.68184 10.4527 4.68153C10.6402 4.68094 10.8277 4.68083 11.0152 4.68073C11.1497 4.68042 11.2842 4.68008 11.4187 4.67971C11.784 4.67882 12.1493 4.67838 12.5146 4.67808C12.7429 4.67788 12.9711 4.6776 13.1994 4.67729C13.9137 4.67636 14.628 4.67571 15.3423 4.67544C16.1667 4.67514 16.991 4.67395 17.8154 4.67198C18.4528 4.67051 19.0901 4.66982 19.7275 4.66973C20.1082 4.66966 20.4888 4.66926 20.8694 4.66804C21.2274 4.66692 21.5854 4.66677 21.9435 4.66737C22.0747 4.66742 22.206 4.66713 22.3372 4.66646C22.5167 4.66559 22.6962 4.66599 22.8757 4.6667C22.9274 4.66615 22.979 4.6656 23.0322 4.66504C23.3966 4.66839 23.6715 4.74467 24.0043 4.89569C24.1063 5.04444 24.1063 5.04444 24.1403 5.16769C24.1852 5.16769 24.2301 5.16769 24.2763 5.16769C24.3935 5.4712 24.4275 5.71863 24.4208 6.04319C24.4196 6.12155 24.4184 6.19992 24.4171 6.28066C24.4147 6.36928 24.4147 6.36928 24.4123 6.45969C24.4555 6.45826 24.4987 6.45684 24.5432 6.45537C24.7404 6.44969 24.9376 6.44617 25.1348 6.44269C25.2028 6.44041 25.2707 6.43813 25.3407 6.43578C25.7452 6.43042 26.0056 6.44347 26.3163 6.73169C26.5425 7.00627 26.5459 7.26062 26.5331 7.60294C26.5322 7.65005 26.5312 7.69717 26.5303 7.74571C26.5279 7.86106 26.5242 7.97638 26.5203 8.09169C26.5815 8.08955 26.5815 8.08955 26.6439 8.08737C26.8308 8.08168 27.0176 8.07817 27.2046 8.07469C27.2687 8.07241 27.3328 8.07013 27.3989 8.06778C27.8263 8.06182 28.0733 8.11638 28.4243 8.36369C28.4243 8.40857 28.4243 8.45345 28.4243 8.49969C28.4692 8.49969 28.5141 8.49969 28.5603 8.49969C28.6844 8.71241 28.7134 8.86687 28.7136 9.11199C28.714 9.18098 28.7144 9.24996 28.7148 9.32103C28.7146 9.39669 28.7143 9.47235 28.7141 9.5503C28.7143 9.63077 28.7146 9.71124 28.7148 9.79415C28.7154 10.0176 28.7154 10.241 28.7151 10.4645C28.7149 10.7054 28.7156 10.9464 28.7161 11.1873C28.7169 11.6594 28.7171 12.1315 28.7169 12.6036C28.7168 12.9873 28.7169 13.3709 28.7172 13.7546C28.7172 13.8092 28.7173 13.8638 28.7173 13.92C28.7174 14.0309 28.7175 14.1417 28.7176 14.2526C28.7183 15.2927 28.7181 16.3329 28.7177 17.373C28.7174 18.3247 28.7181 19.2764 28.7194 20.2281C28.7208 21.2051 28.7213 22.1821 28.7211 23.159C28.7209 23.7076 28.7211 24.2562 28.7221 24.8048C28.7229 25.2719 28.723 25.7389 28.7221 26.206C28.7217 26.4443 28.7217 26.6826 28.7225 26.9209C28.7232 27.1792 28.7226 27.4375 28.7218 27.6958C28.7223 27.7712 28.7228 27.8465 28.7233 27.9242C28.72 28.388 28.6812 28.7108 28.3393 29.0527C27.9384 29.3078 27.5297 29.3275 27.0698 29.325C26.9806 29.3253 26.9806 29.3253 26.8896 29.3256C26.691 29.3261 26.4925 29.3257 26.294 29.3253C26.1514 29.3255 26.0087 29.3257 25.866 29.326C25.4791 29.3266 25.0922 29.3264 24.7053 29.326C24.3002 29.3256 23.8951 29.3259 23.49 29.3261C22.8098 29.3264 22.1295 29.3261 21.4493 29.3254C20.663 29.3247 19.8768 29.3249 19.0906 29.3257C18.4153 29.3263 17.74 29.3264 17.0647 29.326C16.6615 29.3258 16.2583 29.3258 15.8551 29.3262C15.476 29.3266 15.0969 29.3263 14.7178 29.3256C14.5788 29.3254 14.4397 29.3254 14.3006 29.3257C14.1107 29.3261 13.9208 29.3256 13.7308 29.325C13.6759 29.3253 13.621 29.3256 13.5644 29.3259C13.1927 29.3233 12.8107 29.3088 12.515 29.0591C12.4833 29.0177 12.4515 28.9763 12.4188 28.9337C12.3861 28.8923 12.3533 28.8509 12.3195 28.8083C12.1488 28.5654 12.1669 28.377 12.1723 28.0837C12.1226 28.0833 12.0728 28.0829 12.0216 28.0825C11.5504 28.0785 11.0793 28.0736 10.6081 28.0677C10.366 28.0646 10.1238 28.062 9.88167 28.0601C9.60263 28.058 9.32363 28.0543 9.0446 28.0505C8.95852 28.05 8.87243 28.0496 8.78374 28.0492C8.19019 28.0394 7.73461 27.9453 7.20834 27.6757C7.20834 27.6308 7.20834 27.5859 7.20834 27.5397C7.16346 27.5397 7.11858 27.5397 7.07234 27.5397C7.07234 27.4948 7.07234 27.4499 7.07234 27.4037C7.02746 27.4037 6.98258 27.4037 6.93634 27.4037C6.62355 26.8891 6.58401 26.4872 6.58359 25.8907C6.58276 25.8292 6.58192 25.7678 6.58107 25.7045C6.57872 24.619 6.95881 23.8027 7.69709 23.0092C8.5472 22.2107 9.58364 21.7655 10.7077 21.5023C10.9468 21.3879 10.9916 21.2547 11.0843 21.0117C11.1329 20.7575 11.1329 20.7575 11.1523 20.5357C11.1122 20.5175 11.072 20.4994 11.0307 20.4807C10.2825 20.0775 9.90422 19.1922 9.65634 18.4277C9.65634 18.3828 9.65634 18.3379 9.65634 18.2917C9.61426 18.2819 9.57219 18.2721 9.52884 18.2619C9.38434 18.2237 9.38434 18.2237 9.24834 18.1557C9.24834 18.1108 9.24834 18.0659 9.24834 18.0197C9.20653 18.0018 9.16471 17.9839 9.12163 17.9655C8.87308 17.8255 8.7865 17.6006 8.70434 17.3397C8.61364 16.7668 8.61254 16.3329 8.85309 15.8012C8.91789 15.6118 8.88975 15.5569 8.84034 15.3677C8.83057 15.2475 8.82388 15.1269 8.81931 15.0064C8.81653 14.9343 8.81374 14.8622 8.81088 14.7879C8.80826 14.7099 8.80565 14.6319 8.80295 14.5516C8.8001 14.47 8.79724 14.3883 8.7943 14.3041C8.76527 13.4124 8.75991 12.5209 8.75853 11.6288C8.75833 11.5433 8.75814 11.4578 8.75794 11.3697C8.75704 10.9655 8.75636 10.5613 8.75609 10.157C8.75579 9.69487 8.75457 9.23271 8.75263 8.77054C8.75098 8.3656 8.75045 7.96066 8.75034 7.55572C8.75013 7.38492 8.74959 7.21412 8.74869 7.04332C8.74753 6.80584 8.74766 6.5684 8.7481 6.33093C8.74747 6.26113 8.74685 6.19133 8.7462 6.11942C8.74875 5.68274 8.78667 5.33082 9.07356 4.98122C9.46153 4.67714 9.80543 4.6816 10.283 4.68214Z" fill="#C9B490"/>
<path d="M10.2741 5.33752C10.33 5.33714 10.3858 5.33676 10.4434 5.33638C10.6308 5.33545 10.8182 5.33647 11.0056 5.33748C11.1398 5.33722 11.2741 5.33685 11.4084 5.33637C11.7732 5.33542 12.1381 5.33618 12.5029 5.3373C12.8844 5.33824 13.2659 5.3378 13.6474 5.33756C14.2881 5.33738 14.9288 5.3383 15.5695 5.33987C16.3107 5.34168 17.0518 5.3418 17.793 5.341C18.5054 5.34027 19.2179 5.34069 19.9303 5.34165C20.2337 5.34204 20.5372 5.34204 20.8406 5.34172C21.1978 5.34139 21.555 5.34208 21.9123 5.34355C22.0435 5.34393 22.1748 5.34396 22.306 5.34362C22.4849 5.34322 22.6637 5.34406 22.8426 5.34524C22.9209 5.34462 22.9209 5.34462 23.0008 5.344C23.2915 5.34747 23.4554 5.37014 23.6643 5.5756C23.6984 5.72417 23.6984 5.72417 23.6984 5.90086C23.699 5.96822 23.6997 6.03557 23.7004 6.10497C23.6997 6.17916 23.6991 6.25335 23.6984 6.32979C23.699 6.44778 23.699 6.44779 23.6996 6.56816C23.7003 6.78687 23.6999 7.00553 23.6989 7.22423C23.6981 7.45994 23.699 7.69564 23.6996 7.93135C23.7005 8.39322 23.7 8.85508 23.699 9.31695C23.6978 9.85442 23.698 10.3919 23.6983 10.9293C23.6987 11.888 23.6977 12.8467 23.6961 13.8054C23.6944 14.7365 23.694 15.6676 23.6947 16.5986C23.6954 17.6117 23.6956 18.6248 23.6946 19.6378C23.6945 19.7458 23.6944 19.8537 23.6943 19.9617C23.6942 20.0148 23.6942 20.0679 23.6941 20.1226C23.6938 20.4976 23.6939 20.8726 23.6942 21.2475C23.6946 21.7042 23.6942 22.1609 23.6928 22.6176C23.6921 22.8508 23.6918 23.0839 23.6923 23.3171C23.6927 23.5694 23.6919 23.8217 23.6907 24.074C23.6913 24.1856 23.6913 24.1856 23.6919 24.2993C23.6911 24.4001 23.6911 24.4001 23.6902 24.5029C23.6901 24.5612 23.6901 24.6195 23.69 24.6796C23.6815 24.7258 23.6731 24.772 23.6643 24.8196C23.4564 24.9582 23.41 24.9731 23.175 24.9773C23.0893 24.9793 23.0893 24.9793 23.0018 24.9814C22.9404 24.9822 22.8789 24.9829 22.8157 24.9838C22.7526 24.9851 22.6895 24.9864 22.6244 24.9878C22.4228 24.9918 22.2212 24.995 22.0196 24.9981C21.8829 25.0007 21.7463 25.0034 21.6096 25.0061C21.2745 25.0126 20.9394 25.0183 20.6043 25.0236C20.6058 25.0723 20.6072 25.1209 20.6087 25.171C20.6143 25.3939 20.6179 25.6167 20.6213 25.8396C20.6236 25.9161 20.6259 25.9927 20.6282 26.0715C20.635 26.6508 20.5524 26.9986 20.1793 27.4546C19.6002 27.9284 18.9362 28.035 18.2052 28.0384C18.1451 28.0392 18.0849 28.0399 18.023 28.0408C17.8245 28.0432 17.6261 28.0447 17.4277 28.0462C17.2868 28.0476 17.1458 28.0492 17.0048 28.0507C16.6289 28.0547 16.253 28.0578 15.8771 28.0606C15.6447 28.0624 15.4124 28.0643 15.18 28.0663C13.3458 28.082 11.5117 28.0929 9.67759 28.0666C9.59787 28.0657 9.51814 28.0649 9.436 28.064C9.2159 28.0614 8.99587 28.0574 8.77579 28.0528C8.71427 28.0521 8.65275 28.0515 8.58936 28.0508C8.08254 28.037 7.65752 27.9078 7.20834 27.6756C7.20834 27.6307 7.20834 27.5858 7.20834 27.5396C7.16346 27.5396 7.11858 27.5396 7.07234 27.5396C7.07234 27.4947 7.07234 27.4498 7.07234 27.4036C7.02746 27.4036 6.98258 27.4036 6.93634 27.4036C6.62355 26.889 6.58401 26.4871 6.58359 25.8906C6.58276 25.8292 6.58192 25.7677 6.58107 25.7044C6.57872 24.6189 6.95881 23.8026 7.69709 23.0091C8.42439 22.3259 9.60584 21.5852 10.6338 21.5471C10.6927 21.5499 10.7516 21.5527 10.8123 21.5556C11.0843 22.0996 11.0843 22.0996 11.1444 22.2452C11.2403 22.4048 11.323 22.4345 11.4923 22.5076C11.6512 22.6077 11.8093 22.7089 11.9667 22.8112C12.4922 23.078 13.0031 23.1559 13.5876 23.1494C13.653 23.1488 13.7184 23.1482 13.7858 23.1476C14.6149 23.128 15.2717 22.9197 15.9123 22.3716C16.0854 22.1856 16.2348 22.0007 16.3203 21.7596C16.2998 21.6001 16.2504 21.4835 16.1801 21.3389C16.0876 21.0615 16.0456 20.8233 16.1163 20.5356C16.2316 20.3895 16.3609 20.2752 16.4999 20.1515C16.9217 19.7311 17.2271 19.1691 17.4551 18.6231C17.5875 18.3108 17.7187 18.1864 18.0203 18.0196C18.4871 17.5262 18.5195 17.0708 18.5234 16.4232C18.4947 16.1694 18.4233 16.0568 18.2923 15.8436C18.2873 15.6701 18.2873 15.6701 18.3136 15.4824C18.4437 14.2895 18.3454 13.1997 17.8163 12.1036C17.7913 12.05 17.7662 11.9963 17.7404 11.941C17.2744 11.022 16.4576 10.3763 15.4952 10.0398C15.2955 9.97462 15.0948 9.91532 14.8923 9.8596C14.8518 9.84749 14.8112 9.83537 14.7694 9.82289C13.8362 9.62692 12.5714 9.66695 11.6963 10.0636C11.6553 10.0819 11.6142 10.1001 11.5719 10.1189C10.7497 10.4928 10.061 11.0027 9.58993 11.7896C9.55548 11.8441 9.55548 11.8441 9.52034 11.8996C9.4979 11.8996 9.47546 11.8996 9.45234 11.8996C9.44604 11.0886 9.44121 10.2776 9.43825 9.46665C9.43683 9.09008 9.4349 8.71353 9.43182 8.33697C9.42887 7.97366 9.42724 7.61037 9.42653 7.24706C9.42603 7.10835 9.42505 6.96964 9.42358 6.83094C9.42161 6.63686 9.42133 6.44285 9.42146 6.24876C9.42048 6.19124 9.4195 6.13372 9.4185 6.07445C9.41887 6.02144 9.41924 5.96843 9.41963 5.91381C9.41938 5.86793 9.41913 5.82204 9.41887 5.77477C9.53088 5.33578 9.88786 5.33268 10.2741 5.33752Z" fill="#FDF4E6"/>
<path d="M10.8123 21.5561C11.0843 22.1001 11.0843 22.1001 11.1444 22.2457C11.2403 22.4053 11.323 22.4351 11.4923 22.5081C11.6512 22.6082 11.8093 22.7094 11.9667 22.8117C12.4922 23.0785 13.0031 23.1564 13.5876 23.1499C13.653 23.1493 13.7184 23.1487 13.7858 23.1481C14.6947 23.1267 15.4312 22.8656 16.0781 22.2021C16.2086 21.9932 16.2984 21.7854 16.3883 21.5561C17.748 21.7009 19.0133 22.4529 19.899 23.4762C20.4521 24.1865 20.6288 24.9877 20.6298 25.8699C20.6315 25.9442 20.6332 26.0186 20.6349 26.0952C20.6369 26.6609 20.5434 27.0101 20.1793 27.4551C19.6002 27.9289 18.9362 28.0355 18.2052 28.0389C18.1451 28.0397 18.0849 28.0404 18.023 28.0413C17.8245 28.0437 17.6261 28.0452 17.4277 28.0467C17.2868 28.0481 17.1458 28.0497 17.0048 28.0512C16.6289 28.0552 16.253 28.0583 15.8771 28.0611C15.6447 28.0629 15.4124 28.0648 15.18 28.0668C13.3458 28.0825 11.5117 28.0935 9.67759 28.0671C9.59787 28.0662 9.51814 28.0654 9.436 28.0645C9.2159 28.0619 8.99587 28.0579 8.77579 28.0533C8.71427 28.0526 8.65275 28.052 8.58936 28.0513C8.08254 28.0375 7.65752 27.9083 7.20834 27.6761C7.20834 27.6312 7.20834 27.5863 7.20834 27.5401C7.16346 27.5401 7.11858 27.5401 7.07234 27.5401C7.07234 27.4952 7.07234 27.4503 7.07234 27.4041C7.02746 27.4041 6.98258 27.4041 6.93634 27.4041C6.62355 26.8895 6.58401 26.4876 6.58359 25.8911C6.58276 25.8297 6.58192 25.7682 6.58107 25.7049C6.57872 24.6194 6.95881 23.8031 7.69709 23.0096C8.45898 22.2939 9.72987 21.5046 10.8123 21.5561Z" fill="#87B3ED"/>
<path d="M15.3027 13.3064C15.4385 13.398 15.535 13.491 15.644 13.6129C15.8452 13.8284 16.0339 13.9325 16.2985 14.0592C16.5711 14.2212 16.6788 14.351 16.7586 14.6512C16.8071 14.8779 16.8404 15.1049 16.872 15.3344C16.9172 15.6261 17.0136 15.8175 17.2038 16.0482C17.4523 16.2139 17.5433 16.1927 17.8248 16.1488C18.0782 16.0836 18.152 15.9178 18.2918 15.7082C18.6457 16.1617 18.6301 16.6476 18.5638 17.2042C18.4225 17.6817 18.1564 18.0132 17.7478 18.2922C17.6804 18.3258 17.6804 18.3258 17.6118 18.3602C17.5613 18.4776 17.5154 18.5971 17.4715 18.7172C17.2276 19.3207 16.8755 19.883 16.3835 20.3152C16.2003 20.4864 16.1509 20.5946 16.1413 20.8464C16.1622 21.1199 16.261 21.3137 16.3878 21.5562C16.3791 21.9041 16.1826 22.1629 15.9479 22.4088C15.2767 23.0262 14.496 23.2125 13.6083 23.2094C13.5451 23.2105 13.4819 23.2116 13.4167 23.2127C12.5992 23.2133 11.9083 22.9474 11.2963 22.4019C11.2486 22.3472 11.2009 22.2925 11.1518 22.2362C11.0781 22.1541 11.0781 22.1541 11.003 22.0704C10.8694 21.8816 10.8057 21.71 10.7438 21.4882C10.8447 21.4208 10.8447 21.4208 10.9478 21.3522C11.0828 21.0895 11.1175 20.8275 11.1518 20.5362C11.1116 20.518 11.0715 20.4999 11.0301 20.4812C10.282 20.078 9.90364 19.1927 9.65576 18.4282C9.65576 18.3833 9.65576 18.3384 9.65576 18.2922C9.61368 18.2823 9.57161 18.2725 9.52826 18.2624C9.38376 18.2242 9.38376 18.2242 9.24776 18.1562C9.24776 18.1113 9.24776 18.0664 9.24776 18.0202C9.20595 18.0023 9.16413 17.9844 9.12105 17.966C8.8725 17.826 8.78592 17.6011 8.70376 17.3402C8.62805 16.8619 8.58105 16.4347 8.77176 15.9802C8.91626 15.8187 8.91626 15.8187 9.04376 15.7082C9.07461 15.7629 9.10547 15.8176 9.13726 15.8739C9.23057 16.0542 9.23057 16.0542 9.38376 16.1162C9.77063 16.1549 9.77063 16.1549 10.1148 16.0014C10.4485 15.609 10.5333 14.9781 10.6078 14.4842C10.6508 14.4815 10.6938 14.4788 10.7381 14.476C12.2913 14.3743 13.7146 14.1777 15.0416 13.3045C15.1638 13.2602 15.1638 13.2602 15.3027 13.3064Z" fill="#FBCBA0"/>
<path d="M26.5202 8.77218C26.7313 8.76626 26.9423 8.76263 27.1534 8.75943C27.2133 8.75772 27.2733 8.75601 27.335 8.75425C27.3926 8.7536 27.4503 8.75294 27.5096 8.75226C27.5627 8.75119 27.6158 8.75012 27.6704 8.74902C27.8122 8.77218 27.8122 8.77218 27.9315 8.85491C28.0423 9.01362 28.0418 9.11147 28.042 9.30444C28.0426 9.37247 28.0432 9.44049 28.0438 9.51058C28.0434 9.58552 28.043 9.66045 28.0425 9.73766C28.0431 9.85683 28.0431 9.85683 28.0437 9.97841C28.0445 10.1993 28.0443 10.4202 28.0438 10.6411C28.0435 10.8791 28.0444 11.1172 28.0451 11.3553C28.0462 11.8218 28.0463 12.2883 28.0459 12.7549C28.0457 13.1339 28.0458 13.513 28.0461 13.892C28.0462 13.9459 28.0462 13.9998 28.0463 14.0553C28.0464 14.1648 28.0465 14.2743 28.0466 14.3837C28.0475 15.4109 28.0472 16.438 28.0464 17.4652C28.0457 18.4056 28.0466 19.346 28.0482 20.2864C28.0499 21.2513 28.0505 22.2162 28.0501 23.1811C28.0498 23.7231 28.05 24.2651 28.0512 24.8072C28.0522 25.2685 28.0522 25.7299 28.051 26.1912C28.0505 26.4268 28.0503 26.6623 28.0514 26.8978C28.0522 27.1528 28.0515 27.4077 28.0503 27.6627C28.0512 27.7751 28.0512 27.7751 28.0522 27.8898C28.0516 27.9578 28.0509 28.0258 28.0502 28.0959C28.0502 28.1548 28.0502 28.2137 28.0502 28.2744C28.0162 28.4242 28.0162 28.4242 27.8944 28.5451C27.6591 28.6752 27.4178 28.6567 27.1557 28.655C27.0957 28.6554 27.0356 28.6558 26.9738 28.6563C26.7723 28.6574 26.5708 28.6571 26.3693 28.6567C26.225 28.6572 26.0807 28.6578 25.9364 28.6585C25.5441 28.66 25.1519 28.6602 24.7596 28.6601C24.4324 28.6601 24.1053 28.6606 23.7781 28.6612C23.0065 28.6625 22.2348 28.6627 21.4632 28.6622C20.6664 28.6618 19.8696 28.6634 19.0728 28.6659C18.3893 28.668 17.7058 28.6687 17.0223 28.6685C16.6138 28.6683 16.2053 28.6687 15.7968 28.6704C15.4128 28.6719 15.0288 28.6718 14.6448 28.6704C14.5037 28.6701 14.3626 28.6705 14.2214 28.6715C14.0291 28.6727 13.837 28.6718 13.6447 28.6704C13.5885 28.6713 13.5323 28.6721 13.4745 28.673C13.2096 28.6689 13.0833 28.6526 12.8834 28.4725C12.7842 28.2882 12.7842 28.2882 12.7842 28.0162C12.8582 28.0158 12.9322 28.0154 13.0084 28.015C13.7087 28.0111 14.4089 28.0061 15.1092 28.0002C15.4691 27.9971 15.829 27.9944 16.1889 27.9926C16.5368 27.9908 16.8847 27.9881 17.2326 27.9847C17.3647 27.9836 17.4969 27.9828 17.6291 27.9823C18.8275 28.0168 18.8275 28.0168 19.8975 27.564C20.3289 27.2692 20.9379 27.3593 21.4398 27.3633C21.5616 27.3629 21.6833 27.3623 21.805 27.3616C22.1244 27.3601 22.4437 27.3604 22.7631 27.3612C23.2746 27.3625 23.7861 27.3618 24.2976 27.3594C24.4758 27.359 24.654 27.3599 24.8321 27.3609C24.9417 27.3607 25.0513 27.3605 25.1609 27.3602C25.2101 27.3608 25.2592 27.3614 25.3099 27.3621C25.6273 27.3596 25.8436 27.3013 26.1122 27.1322C26.3442 26.8312 26.4603 26.5965 26.4616 26.2179C26.462 26.1557 26.4624 26.0934 26.4627 26.0293C26.4628 25.9609 26.4629 25.8924 26.4629 25.8219C26.4633 25.7492 26.4636 25.6766 26.464 25.6017C26.465 25.3571 26.4656 25.1124 26.4661 24.8678C26.4668 24.6929 26.4675 24.518 26.4682 24.3432C26.4697 23.966 26.4709 23.5889 26.472 23.2118C26.4735 22.6665 26.4754 22.1212 26.4774 21.5759C26.4807 20.6913 26.4836 19.8067 26.4864 18.922C26.489 18.0626 26.4919 17.2032 26.4949 16.3437C26.4951 16.2643 26.4951 16.2643 26.4954 16.1833C26.4964 15.9176 26.4973 15.6519 26.4982 15.3862C26.506 13.1815 26.5132 10.9769 26.5202 8.77218Z" fill="#F1E0C4"/>
<path d="M13.6125 9.68953C13.7428 9.68989 13.7428 9.68989 13.8757 9.69026C14.5454 9.70201 15.0951 9.79072 15.7078 10.0635C15.7612 10.0854 15.8145 10.1074 15.8695 10.1299C17.0247 10.6499 17.7039 11.5626 18.1558 12.7155C18.4759 13.6996 18.6379 14.9328 18.2025 15.9073C18.0608 16.0805 17.956 16.1664 17.7478 16.2515C17.5098 16.2558 17.5098 16.2558 17.2718 16.1835C16.9158 15.8355 16.8015 15.5294 16.7494 15.0429C16.6946 14.5699 16.6946 14.5699 16.4313 14.1897C16.2403 14.0732 16.2403 14.0732 16.0393 13.9754C15.7382 13.8154 15.5267 13.5779 15.2998 13.3275C14.9691 13.4267 14.6811 13.5671 14.3775 13.727C13.1763 14.3428 11.943 14.5026 10.6078 14.4835C10.606 14.5304 10.6043 14.5773 10.6025 14.6256C10.5686 15.1866 10.4484 15.5976 10.1148 16.0518C9.89858 16.2041 9.77518 16.2344 9.51527 16.2162C9.27868 16.1574 9.18073 16.0386 9.04378 15.8435C8.99278 15.5885 8.99278 15.5885 8.97578 15.3675C8.95334 15.3451 8.9309 15.3227 8.90778 15.2995C8.78416 13.8058 8.95274 12.5029 9.8712 11.2982C10.8241 10.1783 12.1705 9.68234 13.6125 9.68953Z" fill="#A07955"/>
<path d="M24.3435 7.07199C24.5419 7.06648 24.7401 7.06243 24.9385 7.05924C24.9946 7.05753 25.0507 7.05582 25.1085 7.05406C25.1629 7.0534 25.2172 7.05274 25.2732 7.05207C25.3231 7.051 25.3729 7.04993 25.4243 7.04883C25.6149 7.07964 25.7041 7.13907 25.8395 7.27599C25.8735 7.42448 25.8735 7.42448 25.8736 7.60106C25.8742 7.66837 25.8749 7.73569 25.8756 7.80504C25.8749 7.87919 25.8743 7.95333 25.8736 8.02972C25.8742 8.14764 25.8742 8.14764 25.8747 8.26795C25.8755 8.48652 25.875 8.70505 25.8741 8.92362C25.8733 9.15919 25.8741 9.39476 25.8747 9.63033C25.8757 10.0919 25.8752 10.5536 25.8742 11.0152C25.873 11.5524 25.8732 12.0897 25.8735 12.6269C25.8739 13.5853 25.8729 14.5437 25.8712 15.5021C25.8696 16.4327 25.8691 17.3633 25.8698 18.2939C25.8706 19.3065 25.8708 20.3192 25.8698 21.3318C25.8697 21.4397 25.8696 21.5477 25.8695 21.6556C25.8694 21.7087 25.8694 21.7618 25.8693 21.8165C25.869 22.1913 25.8691 22.566 25.8694 22.9407C25.8697 23.3973 25.8693 23.8538 25.868 24.3103C25.8673 24.5433 25.867 24.7764 25.8675 25.0094C25.8679 25.2617 25.8671 25.514 25.8659 25.7663C25.8663 25.8404 25.8667 25.9145 25.8671 25.9909C25.8663 26.0919 25.8663 26.0919 25.8654 26.1949C25.8653 26.2532 25.8652 26.3115 25.8652 26.3715C25.8335 26.5547 25.7845 26.6151 25.6355 26.724C25.4199 26.7485 25.4199 26.7485 25.1504 26.7471C25.0768 26.7472 25.0768 26.7472 25.0016 26.7472C24.8393 26.7471 24.6771 26.7455 24.5148 26.7439C24.4023 26.7435 24.2898 26.7432 24.1773 26.743C23.8811 26.7423 23.585 26.7403 23.2889 26.738C22.9867 26.7359 22.6845 26.735 22.3823 26.7339C21.7893 26.7318 21.1964 26.7282 20.6035 26.724C20.6035 26.3649 20.6035 26.0059 20.6035 25.636C20.6872 25.6354 20.7709 25.6347 20.8571 25.6341C21.1693 25.6313 21.4816 25.6269 21.7938 25.6219C21.9286 25.62 22.0635 25.6185 22.1983 25.6176C22.3928 25.6161 22.5872 25.6129 22.7816 25.6094C22.8711 25.6093 22.8711 25.6093 22.9624 25.6092C23.345 25.6002 23.7044 25.5529 24.0035 25.296C24.2907 24.8921 24.3146 24.5767 24.3108 24.089C24.3113 24.0161 24.3118 23.9432 24.3124 23.8681C24.3137 23.6243 24.3132 23.3805 24.3126 23.1367C24.3132 22.9618 24.3139 22.7869 24.3148 22.612C24.3163 22.2356 24.3169 21.8592 24.3169 21.4828C24.3168 20.9386 24.3181 20.3944 24.3199 19.8502C24.3227 18.9673 24.3243 18.0843 24.3251 17.2013C24.3259 16.3437 24.3273 15.4862 24.3294 14.6286C24.3295 14.5757 24.3297 14.5228 24.3298 14.4683C24.3305 14.203 24.3311 13.9377 24.3318 13.6723C24.3375 11.4722 24.3411 9.27211 24.3435 7.07199Z" fill="#F1E0C4"/>
<path d="M10.8123 21.5561C11.0843 22.1001 11.0843 22.1001 11.1444 22.2457C11.2403 22.4053 11.323 22.4351 11.4923 22.5081C11.6512 22.6082 11.8093 22.7094 11.9667 22.8117C12.4922 23.0785 13.0031 23.1564 13.5876 23.1499C13.653 23.1493 13.7184 23.1487 13.7858 23.1481C14.6947 23.1267 15.4312 22.8656 16.0781 22.2021C16.2086 21.9932 16.2984 21.7854 16.3883 21.5561C17.748 21.7009 19.0133 22.4529 19.899 23.4762C20.4521 24.1865 20.6288 24.9877 20.6298 25.8699C20.6315 25.9442 20.6332 26.0186 20.6349 26.0952C20.6369 26.6609 20.5434 27.0101 20.1793 27.4551C19.6002 27.9289 18.9362 28.0355 18.2052 28.0389C18.1451 28.0397 18.0849 28.0404 18.023 28.0413C17.8245 28.0437 17.6261 28.0452 17.4277 28.0467C17.2868 28.0481 17.1458 28.0497 17.0048 28.0512C16.6289 28.0552 16.253 28.0583 15.8771 28.0611C15.6447 28.0629 15.4124 28.0648 15.18 28.0668C13.3458 28.0825 11.5117 28.0935 9.67759 28.0671C9.59787 28.0662 9.51814 28.0654 9.436 28.0645C9.2159 28.0619 8.99587 28.0579 8.77579 28.0533C8.71427 28.0526 8.65275 28.052 8.58936 28.0513C8.08254 28.0375 7.65752 27.9083 7.20834 27.6761C7.20834 27.6312 7.20834 27.5863 7.20834 27.5401C7.16346 27.5401 7.11858 27.5401 7.07234 27.5401C7.07234 27.4952 7.07234 27.4503 7.07234 27.4041C7.02746 27.4041 6.98258 27.4041 6.93634 27.4041C6.62355 26.8895 6.58401 26.4876 6.58359 25.8911C6.58276 25.8297 6.58192 25.7682 6.58107 25.7049C6.57872 24.6194 6.95881 23.8031 7.69709 23.0096C8.45898 22.2939 9.72987 21.5046 10.8123 21.5561ZM8.56834 23.1881C8.50978 23.2267 8.45123 23.2652 8.3909 23.305C7.99098 23.5895 7.76283 23.9053 7.54834 24.3441C7.50613 24.4231 7.50613 24.4231 7.46307 24.5037C7.26663 24.9356 7.25038 25.356 7.24659 25.8231C7.2459 25.8843 7.24521 25.9454 7.2445 26.0085C7.24948 26.3872 7.29394 26.6639 7.48034 26.9961C7.82032 27.3037 8.22985 27.3445 8.66785 27.3457C8.71185 27.3459 8.75585 27.3461 8.80119 27.3463C8.94849 27.3469 9.09579 27.347 9.24309 27.3471C9.34877 27.3474 9.45445 27.3477 9.56013 27.3481C9.84717 27.349 10.1342 27.3494 10.4213 27.3497C10.6007 27.3499 10.7801 27.3502 10.9596 27.3505C11.5212 27.3514 12.0829 27.3521 12.6446 27.3524C13.2924 27.3527 13.9403 27.3538 14.5881 27.3558C15.0892 27.3573 15.5903 27.358 16.0914 27.3581C16.3906 27.3581 16.6897 27.3585 16.9888 27.3598C17.2703 27.3609 17.5518 27.361 17.8334 27.3604C17.9364 27.3604 18.0395 27.3607 18.1426 27.3613C18.9916 27.3709 18.9916 27.3709 19.7458 27.0131C20.1296 26.4817 20.0475 25.7004 19.9498 25.0836C19.7216 24.1184 19.1381 23.4364 18.317 22.9236C17.6006 22.4799 17.6006 22.4799 16.7963 22.3041C16.6582 22.4286 16.5594 22.5372 16.4478 22.6824C15.8633 23.3774 15.0622 23.6636 14.1741 23.7789C14.0736 23.7872 13.973 23.7943 13.8723 23.8001C13.8218 23.8037 13.7712 23.8073 13.7191 23.811C12.719 23.8489 11.7212 23.5436 10.9398 22.9119C10.7989 22.7804 10.6942 22.6453 10.5913 22.4826C10.5521 22.4237 10.5128 22.3648 10.4723 22.3041C9.79851 22.3041 9.10752 22.8287 8.56834 23.1881Z" fill="#608FD7"/>
<path d="M8.97588 15.708C9.01655 15.7599 9.05722 15.8118 9.09913 15.8653C9.21181 16.0037 9.32288 16.1295 9.45188 16.252C9.42944 16.2969 9.407 16.3418 9.38388 16.388C9.35489 16.8083 9.40965 17.0932 9.58788 17.476C9.78092 17.6226 9.78092 17.6226 9.99588 17.6566C10.1999 17.748 10.1999 17.748 10.3146 17.9754C10.3457 18.0692 10.3754 18.1634 10.4039 18.258C10.4378 18.3574 10.4721 18.4567 10.5069 18.5558C10.5238 18.604 10.5407 18.6522 10.5581 18.7019C10.871 19.5445 11.578 20.1548 12.3759 20.536C13.2461 20.8836 14.1402 20.803 14.9973 20.4683C15.9961 20.0194 16.5427 19.1888 16.929 18.1988C17.0579 17.8737 17.0579 17.8737 17.1359 17.748C17.213 17.7172 17.2902 17.6863 17.3696 17.6545C17.6164 17.5641 17.6164 17.5641 17.7436 17.3783C17.8496 17.0229 17.9195 16.5273 17.7479 16.184C17.7998 16.156 17.8517 16.1279 17.9051 16.099C18.0836 15.9828 18.1765 15.8841 18.2919 15.708C18.6459 16.1615 18.6302 16.6475 18.5639 17.204C18.4226 17.6816 18.1566 18.013 17.7479 18.292C17.6806 18.3257 17.6806 18.3257 17.6119 18.36C17.5614 18.4775 17.5155 18.5969 17.4716 18.717C17.2277 19.3206 16.8756 19.8829 16.3836 20.315C16.2004 20.4863 16.151 20.5945 16.1414 20.8463C16.1623 21.1198 16.2612 21.3136 16.3879 21.556C16.3792 21.9039 16.1827 22.1627 15.948 22.4087C15.2768 23.026 14.4961 23.2123 13.6084 23.2093C13.5452 23.2104 13.482 23.2115 13.4169 23.2126C12.5993 23.2131 11.9084 22.9473 11.2964 22.4018C11.2487 22.3471 11.201 22.2924 11.1519 22.236C11.1028 22.1813 11.0537 22.1266 11.0031 22.0703C10.8695 21.8814 10.8058 21.7098 10.7439 21.488C10.8449 21.4207 10.8449 21.4207 10.9479 21.352C11.083 21.0893 11.1176 20.8273 11.1519 20.536C11.1117 20.5179 11.0716 20.4997 11.0302 20.481C10.2821 20.0779 9.90376 19.1925 9.65588 18.428C9.65588 18.3831 9.65588 18.3382 9.65588 18.292C9.6138 18.2822 9.57173 18.2724 9.52838 18.2623C9.38388 18.224 9.38388 18.224 9.24788 18.156C9.24788 18.1111 9.24788 18.0662 9.24788 18.02C9.20606 18.0021 9.16425 17.9842 9.12117 17.9658C8.87262 17.8259 8.78604 17.6009 8.70388 17.34C8.61779 16.7962 8.55771 16.293 8.88238 15.8185C8.92866 15.7638 8.92866 15.7638 8.97588 15.708Z" fill="#EFA86C"/>
<path d="M13.6125 9.68953C13.7428 9.68989 13.7428 9.68989 13.8757 9.69026C14.5454 9.70201 15.0951 9.79072 15.7078 10.0635C15.7612 10.0854 15.8145 10.1074 15.8695 10.1299C17.0247 10.6499 17.7039 11.5626 18.1558 12.7155C18.4759 13.6996 18.6379 14.9328 18.2025 15.9073C18.0608 16.0805 17.956 16.1664 17.7478 16.2515C17.5098 16.2558 17.5098 16.2558 17.2718 16.1835C16.9158 15.8355 16.8015 15.5294 16.7494 15.0429C16.6946 14.5699 16.6946 14.5699 16.4313 14.1897C16.2403 14.0732 16.2403 14.0732 16.0393 13.9754C15.7382 13.8154 15.5267 13.5779 15.2998 13.3275C14.9691 13.4267 14.6811 13.5671 14.3775 13.727C13.1763 14.3428 11.943 14.5026 10.6078 14.4835C10.606 14.5304 10.6043 14.5773 10.6025 14.6256C10.5686 15.1866 10.4484 15.5976 10.1148 16.0518C9.89858 16.2041 9.77518 16.2344 9.51527 16.2162C9.27868 16.1574 9.18073 16.0386 9.04378 15.8435C8.99278 15.5885 8.99278 15.5885 8.97578 15.3675C8.95334 15.3451 8.9309 15.3227 8.90778 15.2995C8.78416 13.8058 8.95274 12.5029 9.8712 11.2982C10.8241 10.1783 12.1705 9.68234 13.6125 9.68953ZM10.3926 11.6618C9.78245 12.4468 9.49386 13.3656 9.50278 14.3518C9.50226 14.4102 9.50173 14.4686 9.50119 14.5288C9.50226 14.8799 9.54212 15.1711 9.65578 15.5035C9.70066 15.5035 9.74554 15.5035 9.79178 15.5035C9.80826 15.4248 9.82474 15.3461 9.84172 15.265C9.86469 15.1603 9.88772 15.0557 9.91078 14.951C9.92148 14.8993 9.93217 14.8476 9.94319 14.7943C10.0195 14.4539 10.1185 14.2141 10.3358 13.9395C10.5153 13.8498 10.6625 13.8548 10.8633 13.8447C12.3874 13.759 13.8023 13.5933 15.0326 12.6021C15.1638 12.5115 15.1638 12.5115 15.3593 12.4988C15.6315 12.6022 15.7081 12.7399 15.8693 12.9745C16.1515 13.3551 16.5281 13.6242 16.948 13.8354C17.2771 14.1214 17.3225 14.615 17.3865 15.0233C17.3953 15.0763 17.4042 15.1293 17.4132 15.1839C17.4346 15.313 17.4553 15.4422 17.4758 15.5715C17.5207 15.5715 17.5655 15.5715 17.6118 15.5715C17.9629 14.5265 17.7728 13.3382 17.3228 12.3543C16.8701 11.5235 16.1649 10.8267 15.2507 10.5366C13.5418 10.0398 11.6041 10.26 10.3926 11.6618Z" fill="#805F3C"/>
<path d="M11.8323 21.0117C11.8821 21.0319 11.9319 21.052 11.9832 21.0728C13.0017 21.4762 14.115 21.5191 15.129 21.0861C15.2138 21.0493 15.2138 21.0493 15.3003 21.0117C15.3452 21.0117 15.3901 21.0117 15.4363 21.0117C15.4599 21.088 15.4599 21.088 15.4839 21.1658C15.65 21.6808 15.65 21.6808 16.0483 22.0317C16.1157 22.099 16.1157 22.099 16.1843 22.1677C15.4181 22.9136 14.6715 23.2126 13.6088 23.209C13.5456 23.2101 13.4824 23.2112 13.4173 23.2123C12.6091 23.2129 11.8772 22.9499 11.2798 22.393C11.1523 22.2357 11.1523 22.2357 11.1523 22.0317C11.2141 21.9854 11.2758 21.9392 11.3393 21.8915C11.632 21.6668 11.72 21.3522 11.8323 21.0117Z" fill="#FACCA0"/>
<path d="M11.6249 7.67528C11.7111 7.67499 11.7974 7.6747 11.8863 7.6744C11.9825 7.67442 12.0787 7.67445 12.1748 7.67449C12.2757 7.67429 12.3765 7.67406 12.4774 7.6738C12.7518 7.6732 13.0262 7.67304 13.3005 7.67299C13.5294 7.67293 13.7582 7.67268 13.987 7.67244C14.5267 7.67189 15.0664 7.67172 15.6061 7.67177C16.1634 7.67181 16.7207 7.67109 17.278 7.67002C17.756 7.66913 18.234 7.66876 18.712 7.66881C18.9977 7.66882 19.2834 7.66863 19.5691 7.66791C19.8377 7.66725 20.1063 7.66725 20.375 7.66774C20.4737 7.66781 20.5724 7.66765 20.6711 7.66724C20.8056 7.66672 20.9401 7.66711 21.0746 7.66756C21.15 7.66752 21.2253 7.66748 21.303 7.66744C21.4881 7.68437 21.4881 7.68437 21.6921 7.82037C21.7133 7.99037 21.7133 7.99037 21.6921 8.16037C21.5069 8.34552 21.4079 8.31362 21.1487 8.3141C21.0184 8.31482 21.0184 8.31482 20.8855 8.31556C20.7887 8.3154 20.6919 8.31523 20.5951 8.31505C20.4935 8.31534 20.392 8.31569 20.2905 8.3161C20.0143 8.31701 19.7381 8.31705 19.4619 8.31688C19.2315 8.3168 19.0012 8.31714 18.7708 8.31746C18.2276 8.31822 17.6843 8.31825 17.141 8.31783C16.58 8.31742 16.019 8.31826 15.458 8.31971C14.9768 8.32091 14.4956 8.32132 14.0145 8.32109C13.7269 8.32097 13.4393 8.32115 13.1517 8.32209C12.8812 8.32295 12.6108 8.32282 12.3404 8.32193C12.241 8.32177 12.1417 8.32196 12.0423 8.32252C11.9069 8.32322 11.7715 8.32256 11.6361 8.32182C11.5223 8.32183 11.5223 8.32183 11.4062 8.32185C11.2201 8.29637 11.2201 8.29637 11.0913 8.20393C11.0161 8.09237 11.0161 8.09237 11.0288 7.91387C11.1305 7.61659 11.3447 7.6757 11.6249 7.67528Z" fill="#8EA9D8"/>
<path d="M18.8523 19.8382C18.9117 19.8378 18.9712 19.8374 19.0324 19.8369C19.1289 19.8373 19.1289 19.8373 19.2274 19.8377C19.2932 19.8376 19.3591 19.8375 19.427 19.8374C19.5665 19.8373 19.706 19.8375 19.8455 19.8381C20.0595 19.8388 20.2735 19.8381 20.4875 19.8372C20.6228 19.8373 20.7581 19.8375 20.8934 19.8377C20.9577 19.8375 21.022 19.8372 21.0883 19.8369C21.1477 19.8373 21.2072 19.8378 21.2684 19.8382C21.3471 19.8384 21.3471 19.8384 21.4273 19.8385C21.5564 19.8558 21.5564 19.8558 21.6924 19.9918C21.6754 20.2341 21.6754 20.2341 21.6244 20.4678C21.469 20.5455 21.3804 20.5452 21.2077 20.5468C21.1209 20.5477 21.1209 20.5477 21.0324 20.5487C20.9384 20.5492 20.9384 20.5492 20.8426 20.5496C20.7784 20.55 20.7142 20.5504 20.648 20.5508C20.512 20.5514 20.376 20.5519 20.24 20.5521C20.0317 20.5528 19.8234 20.5549 19.615 20.5571C19.4831 20.5575 19.3511 20.5579 19.2191 20.5581C19.1566 20.559 19.0942 20.5598 19.0298 20.5607C18.9717 20.5605 18.9136 20.5603 18.8538 20.56C18.7771 20.5604 18.7771 20.5604 18.699 20.5608C18.5263 20.5288 18.4644 20.4712 18.3604 20.3318C18.3865 19.9741 18.4952 19.8389 18.8523 19.8382Z" fill="#8FA9D8"/>
<path d="M18.8517 9.97884C18.9112 9.97841 18.9706 9.97798 19.0319 9.97754C19.1284 9.97795 19.1284 9.97795 19.2268 9.97837C19.2927 9.97824 19.3586 9.97811 19.4265 9.97798C19.5659 9.97789 19.7054 9.97814 19.8449 9.97871C20.0589 9.97943 20.2729 9.97871 20.4869 9.97784C20.6222 9.97793 20.7575 9.97811 20.8928 9.97837C20.9571 9.9781 21.0214 9.97782 21.0877 9.97754C21.1471 9.97797 21.2066 9.9784 21.2679 9.97884C21.3465 9.979 21.3465 9.979 21.4268 9.97917C21.5558 9.99644 21.5558 9.99644 21.6918 10.1324C21.7088 10.3024 21.7088 10.3024 21.6918 10.4724C21.5282 10.6361 21.4911 10.6256 21.2679 10.626C21.2084 10.6265 21.1489 10.6269 21.0877 10.6273C20.9912 10.6269 20.9912 10.6269 20.8928 10.6265C20.8269 10.6266 20.761 10.6268 20.6931 10.6269C20.5536 10.627 20.4142 10.6267 20.2747 10.6262C20.0607 10.6254 19.8467 10.6262 19.6327 10.627C19.4974 10.6269 19.3621 10.6268 19.2268 10.6265C19.1625 10.6268 19.0982 10.627 19.0319 10.6273C18.9724 10.6269 18.913 10.6265 18.8517 10.626C18.7993 10.6259 18.7468 10.6258 18.6928 10.6257C18.5638 10.6084 18.5638 10.6084 18.4278 10.4724C18.4108 10.3024 18.4108 10.3024 18.4278 10.1324C18.5914 9.96881 18.6285 9.9793 18.8517 9.97884Z" fill="#90AAD8"/>
<path d="M20.1968 12.4317C20.2462 12.4317 20.2956 12.4317 20.3464 12.4317C20.497 12.4315 20.6476 12.4303 20.7982 12.429C20.8935 12.4288 20.9888 12.4287 21.0841 12.4286C21.1713 12.4283 21.2585 12.4281 21.3483 12.4278C21.5561 12.4443 21.5561 12.4443 21.6921 12.5803C21.7159 12.7659 21.7235 12.8743 21.6164 13.0313C21.3478 13.226 20.9649 13.1567 20.6452 13.1546C20.5071 13.154 20.3692 13.156 20.2311 13.1582C20.1003 13.1581 20.1003 13.1581 19.9669 13.158C19.887 13.1581 19.8071 13.1583 19.7248 13.1584C19.4778 13.118 19.3986 13.0441 19.2441 12.8523C19.4443 12.3319 19.673 12.4335 20.1968 12.4317Z" fill="#93ABD8"/>
<path d="M20.3572 14.8756C20.4966 14.875 20.636 14.8728 20.7753 14.8707C20.863 14.8703 20.9507 14.87 21.0411 14.8696C21.1621 14.8687 21.1621 14.8687 21.2856 14.8677C21.4876 14.8919 21.4876 14.8919 21.6159 14.9845C21.7238 15.1434 21.7205 15.2485 21.6916 15.4359C21.3661 15.653 20.9926 15.5972 20.6119 15.5971C20.4681 15.5974 20.3245 15.5999 20.1807 15.6025C20.0894 15.6029 19.998 15.6032 19.9066 15.6033C19.782 15.6041 19.782 15.6041 19.6548 15.605C19.4476 15.5719 19.4476 15.5719 19.314 15.4454C19.2436 15.2999 19.2436 15.2999 19.2904 15.1172C19.4966 14.7538 19.9869 14.8767 20.3572 14.8756Z" fill="#95ADD8"/>
<path d="M19.9172 17.3901C19.9866 17.3899 19.9866 17.3899 20.0574 17.3897C20.1553 17.3896 20.2531 17.3899 20.351 17.3904C20.501 17.3912 20.6509 17.3904 20.8009 17.3896C20.8959 17.3897 20.9909 17.3898 21.086 17.3901C21.1727 17.3903 21.2594 17.3904 21.3488 17.3906C21.5556 17.4082 21.5556 17.4082 21.6916 17.5442C21.7086 17.7142 21.7086 17.7142 21.6916 17.8842C21.4965 18.0792 21.3586 18.0377 21.086 18.0382C21.0165 18.0384 21.0165 18.0384 20.9457 18.0386C20.8479 18.0387 20.75 18.0385 20.6522 18.0379C20.5022 18.0372 20.3522 18.0379 20.2022 18.0388C20.1072 18.0387 20.0122 18.0385 19.9172 18.0382C19.8305 18.0381 19.7437 18.0379 19.6544 18.0378C19.4476 18.0202 19.4476 18.0202 19.3116 17.8842C19.2946 17.7142 19.2946 17.7142 19.3116 17.5442C19.5066 17.3491 19.6445 17.3906 19.9172 17.3901Z" fill="#8EA8D8"/>
<path d="M21.0123 22.2909C21.0624 22.2901 21.1125 22.2893 21.1642 22.2884C21.295 22.2881 21.4257 22.2954 21.5563 22.3037C21.6923 22.4397 21.6923 22.4397 21.7135 22.6054C21.6923 22.7797 21.6923 22.7797 21.6208 22.891C21.4195 23.0318 21.2148 23.0132 20.9783 23.0092C20.9322 23.01 20.8862 23.0108 20.8388 23.0116C20.6403 23.0104 20.5008 23.0055 20.3336 22.8934C20.2643 22.7797 20.2643 22.7797 20.277 22.5672C20.2952 22.5027 20.3135 22.4382 20.3323 22.3717C20.5471 22.2643 20.7766 22.2911 21.0123 22.2909Z" fill="#91ABD9"/>
</svg>
